Coordinates
version=1
nRows=9
nColumns=36
inDegrees=yes

Units are S.I. units (second, meters, Newtons, ...)
If the header above contains a line with 'inDegrees', this indicates whether rotational values are in degrees (yes) or radians (no).

endheader
time	pelvis_tilt	pelvis_list	pelvis_rotation	pelvis_tx	pelvis_ty	pelvis_tz	hip_flexion_r	hip_adduction_r	hip_rotation_r	knee_angle_r	knee_angle_r_beta	ankle_angle_r	subtalar_angle_r	mtp_angle_r	hip_flexion_l	hip_adduction_l	hip_rotation_l	knee_angle_l	knee_angle_l_beta	ankle_angle_l	subtalar_angle_l	mtp_angle_l	lumbar_extension	lumbar_bending	lumbar_rotation	arm_flex_r	arm_add_r	arm_rot_r	elbow_flex_r	pro_sup_r	arm_flex_l	arm_add_l	arm_rot_l	elbow_flex_l	pro_sup_l
      0.00000000	     -0.73128025	      3.06497977	    183.05680328	      0.44996868	      0.84501134	      0.70849202	     16.00879029	      5.53734423	     -0.75871211	     17.29654345	      0.30188163	    -15.05751377	    -18.04819925	     -8.06624121	      9.26500565	     -3.47982478	      3.29425236	     66.42276290	      1.15929591	    -14.83403841	    -22.02582545	     -8.06624121	    -13.00122020	      3.81386169	     -2.87896612	     -0.23969491	     -8.28621397	    -13.76311301	     13.18907162	     91.98427227	     14.73304981	    -14.21165831	     -6.21488856	     19.72865433	     94.74341904
      0.01666670	      1.32661867	      2.66072109	    181.60525230	      0.44793413	      0.84213750	      0.70344461	     17.54468274	      5.21110617	     -3.63917923	     19.01734976	      0.33191537	    -18.19548692	    -17.32115032	     -8.04347803	     14.73635943	     -3.63777564	      1.69446438	     71.41650265	      1.24645311	    -18.82251967	    -23.97138054	     -8.04347803	    -10.92359363	      2.49994908	     -0.65602364	      0.25491238	     -8.51968155	    -14.34660908	      8.96563891	     91.92131260	     15.52531186	    -14.31158804	     -7.76537907	     16.84224992	     94.46030304
      0.03333330	      4.63370203	      2.38283318	    181.86075019	      0.44492923	      0.83898067	      0.70075071	     20.38240466	      4.84330252	     -4.54373299	     20.61927643	      0.35987426	    -20.15170704	    -18.10456317	     -8.00968263	     21.11698410	     -3.73194848	      1.31195394	     75.31590231	      1.31451047	    -18.60030613	    -23.71494064	     -8.00968263	     -6.44217192	      1.64028113	     -1.45416602	      0.84802003	     -8.12102659	    -15.85468908	      6.91458993	     91.76656380	     14.54916838	    -14.61751335	     -8.71791937	     13.03910424	     94.67305631
      0.05000000	      5.83639216	      2.09814385	    182.03765213	      0.44420689	      0.83992440	      0.70027093	     20.84201528	      4.57049395	     -4.38568761	     21.92150807	      0.38260249	    -20.15068731	    -19.13650587	     -7.98125302	     25.17085640	     -3.51047577	      0.72218693	     77.88154131	      1.35928932	    -17.96503479	    -24.01228363	     -7.98125302	     -5.00030125	      1.06342195	     -1.14355208	      1.97064263	     -8.19155498	    -17.54195237	      5.89350162	     91.55059336	     14.17220684	    -14.36074662	     -8.83975388	     11.68579059	     95.02376667
      0.06666670	      5.75924901	      2.24079070	    182.70779389	      0.44675448	      0.84375624	      0.70268451	     19.97404949	      4.57241031	     -3.86386567	     23.16480317	      0.40430209	    -19.32072188	    -19.58038513	     -7.97367699	     27.66375139	     -3.09084327	      0.67133944	     78.79350782	      1.37520614	    -16.97748307	    -24.41825630	     -7.97367699	     -5.70794340	      1.18653958	     -0.88500939	      3.40324297	     -8.78217600	    -17.94434020	      6.55139143	     91.37792098	     14.22749136	    -13.78194932	     -8.78303385	     11.65316620	     95.00882424
      0.08333330	      6.38341842	      2.49880645	    183.20428046	      0.45239815	      0.84777912	      0.70659059	     20.37902323	      4.43734501	     -3.22743873	     25.14032990	      0.43878153	    -17.68233971	    -20.09679065	     -7.87247875	     31.02666696	     -2.35286310	      0.62171391	     78.49373357	      1.36997409	    -15.78671223	    -24.72471350	     -7.87247875	     -5.65384982	      1.56007586	     -0.22349335	      5.24147669	     -9.28207487	    -24.95667665	      6.92621009	     90.19832580	     14.85413448	    -12.87854764	     -8.05914543	     10.33026510	     96.47211476
      0.10000000	      6.37073203	      2.58535042	    183.31228517	      0.45865985	      0.85316194	      0.71064130	     20.13550827	      3.91552741	     -2.86825468	     26.97399645	      0.47078505	    -15.93624493	    -20.29670857	     -7.85980644	     33.27451736	     -1.38827546	      0.31552310	     76.28488896	      1.33142248	    -15.23889366	    -24.91284803	     -7.85980644	     -6.79524929	      2.01568643	      0.19718185	      7.30184777	    -10.19478435	    -24.86896913	      8.11330268	     90.19861234	     15.01264314	    -11.85961049	     -8.02034450	     10.09459048	     96.36554523
      0.11666670	      6.29070670	      2.58779214	    182.99270851	      0.46242900	      0.85848579	      0.71285024	     19.57141769	      3.23908585	     -2.93920214	     27.95225165	      0.48785882	    -14.10020333	    -20.01657533	     -7.82326499	     34.64162785	     -0.75208126	     -0.33901230	     72.33248092	      1.26243995	    -15.89004456	    -24.90219519	     -7.82326499	     -7.89888676	      2.37335916	      0.96274623	      9.14498959	    -11.08739722	    -22.99395887	      9.43514515	     87.54227638	     15.32285518	    -10.71184570	     -7.40125827	      9.22864073	     93.14246522
      0.13333330	      6.21615193	      2.31698680	    182.54421534	      0.46410943	      0.86141679	      0.71281690	     18.73560349	      2.47189796	     -3.08795512	     27.85802337	      0.48621423	    -12.73312798	    -20.10128714	     -7.80625930	     34.99395456	     -0.51569550	     -1.48317280	     67.33675074	      1.17524801	    -17.81242835	    -25.20661243	     -7.80625930	     -8.78819847	      2.23949660	      1.61734176	     10.70182725	    -11.66804907	    -21.47809864	     11.40447688	     87.98963334	     15.33964514	     -9.86489274	     -7.34700004	      8.89428570	     93.28371289
